<svg width="17" height="16" viewBox="0 0 17 16" fill="none" xmlns="http://www.w3.org/2000/svg">
<path d="M6.39638 0.454104L0.35404 7.2041C0.260157 7.30862 0.185665 7.43281 0.134836 7.56956C0.0840091 7.7063 0.0578422 7.85291 0.0578422 8.00098C0.0578422 8.14904 0.0840091 8.29565 0.134836 8.4324C0.185665 8.56915 0.260157 8.69334 0.35404 8.79785L6.39638 15.5479C6.58557 15.7592 6.84216 15.8779 7.10971 15.8779C7.37726 15.8779 7.63385 15.7592 7.82304 15.5479C8.01223 15.3365 8.11851 15.0499 8.11851 14.751C8.11851 14.4521 8.01223 14.1654 7.82304 13.9541L3.50025 9.12504L15.8367 9.12504C16.1038 9.12504 16.3599 9.00651 16.5488 8.79554C16.7376 8.58456 16.8437 8.29841 16.8437 8.00004C16.8437 7.70167 16.7376 7.41552 16.5488 7.20455C16.3599 6.99357 16.1038 6.87504 15.8367 6.87504L3.50025 6.87504L7.82388 2.04598C8.01307 1.83463 8.11935 1.54799 8.11935 1.2491C8.11935 0.950218 8.01307 0.663574 7.82388 0.45223C7.63469 0.240885 7.3781 0.122151 7.11055 0.122151C6.843 0.122151 6.58641 0.240885 6.39722 0.45223L6.39638 0.454104Z" fill="black"/>
</svg>
